<svg width="100" height="100" viewBox="0 0 100 100" fill="none" xmlns="http://www.w3.org/2000/svg">
<path d="M50 41.6666V69.8708M24.3292 42.2312C15.1563 44.4125 8.33337 52.6604 8.33337 62.5C8.33337 74.0062 17.6605 83.3333 29.1667 83.3333C31.1396 83.3333 33.05 83.0583 34.8605 82.5458L24.3292 42.2312ZM75.1146 42.2312C84.2875 44.4125 91.1084 52.6604 91.1084 62.5C91.1084 74.0062 81.7813 83.3333 70.275 83.3333C68.3021 83.3333 66.3917 83.0583 64.5834 82.5458L75.1146 42.2312ZM75 41.6666C75 27.8604 63.8063 16.6666 50 16.6666C36.1938 16.6666 25 27.8604 25 41.6666H75ZM35.5521 62.7479L50 77.2416L64.8584 62.5L35.5521 62.7479Z" stroke="white" stroke-width="6" stroke-linecap="round" stroke-linejoin="round"/>
</svg>
