<svg width="100" height="100" viewBox="0 0 100 100" fill="none" xmlns="http://www.w3.org/2000/svg">
<path d="M68.75 43.5547H31.25C30.8203 43.5547 30.4688 43.9062 30.4688 44.3359V83.5938C30.4688 84.0234 30.8203 84.375 31.25 84.375H68.75C69.1797 84.375 69.5312 84.0234 69.5312 83.5938V44.3359C69.5312 43.9062 69.1797 43.5547 68.75 43.5547ZM36.7188 49.8047H63.2812V61.2305H36.7188V49.8047ZM63.2812 78.125H36.7188V66.6992H63.2812V78.125Z" fill="white"/>
<path d="M41.4062 73.0469C41.4062 73.8757 41.7355 74.6705 42.3215 75.2566C42.9076 75.8426 43.7024 76.1719 44.5312 76.1719C45.3601 76.1719 46.1549 75.8426 46.741 75.2566C47.327 74.6705 47.6562 73.8757 47.6562 73.0469C47.6562 72.2181 47.327 71.4232 46.741 70.8372C46.1549 70.2511 45.3601 69.9219 44.5312 69.9219C43.7024 69.9219 42.9076 70.2511 42.3215 70.8372C41.7355 71.4232 41.4062 72.2181 41.4062 73.0469ZM41.4062 55.6641C41.4062 56.4929 41.7355 57.2877 42.3215 57.8738C42.9076 58.4598 43.7024 58.7891 44.5312 58.7891C45.3601 58.7891 46.1549 58.4598 46.741 57.8738C47.327 57.2877 47.6562 56.4929 47.6562 55.6641C47.6562 54.8353 47.327 54.0404 46.741 53.4544C46.1549 52.8683 45.3601 52.5391 44.5312 52.5391C43.7024 52.5391 42.9076 52.8683 42.3215 53.4544C41.7355 54.0404 41.4062 54.8353 41.4062 55.6641Z" fill="white"/>
<path d="M79.2383 36.0254C74.7657 24.2187 63.3692 15.8203 50.0196 15.8203C36.67 15.8203 25.2735 24.209 20.8008 36.0156C12.3926 38.2324 6.20121 45.918 6.25004 55.0391C6.30864 65.2344 14.2188 73.5254 24.1797 74.4141C24.6387 74.4531 25.0293 74.0918 25.0293 73.6328V67.7344C25.0293 67.3437 24.7364 67.0117 24.3457 66.9629C21.709 66.6309 19.2188 65.4785 17.3047 63.5938C14.961 61.2988 13.6719 58.2129 13.6719 54.9414C13.6719 52.207 14.5606 49.6289 16.2305 47.4805C17.8614 45.3906 20.1563 43.877 22.6856 43.2129L26.3868 42.2363L27.7442 38.6523C28.584 36.4258 29.7559 34.3359 31.2305 32.4512C32.6856 30.5762 34.4141 28.9355 36.3477 27.5684C40.3614 24.7461 45.0879 23.252 50.0196 23.252C54.9512 23.252 59.6778 24.7461 63.6914 27.5781C65.6348 28.9453 67.3536 30.5859 68.8086 32.4609C70.2832 34.3457 71.4551 36.4355 72.295 38.6621L73.6426 42.2363L77.334 43.2129C82.627 44.6191 86.3282 49.4336 86.3282 54.9316C86.3282 58.2129 85.0391 61.2891 82.6954 63.584C80.7911 65.459 78.3106 66.6211 75.6739 66.9531C75.2832 67.0019 75 67.334 75 67.7246V73.6328C75 74.0918 75.4004 74.4531 75.8594 74.4141C85.7911 73.5156 93.6817 65.2344 93.75 55.0586C93.8086 45.9375 87.627 38.252 79.2383 36.0254Z" fill="white"/>
</svg>
