<svg width="100" height="100" viewBox="0 0 100 100" fill="none" xmlns="http://www.w3.org/2000/svg">
<path d="M89.5834 37.5H68.75L76.5 29.75C73.3882 25.6765 69.3777 22.3764 64.7812 20.1071C60.1847 17.8377 55.1262 16.6604 50 16.6667C31.5834 16.6667 16.6667 31.5834 16.6667 50C16.6667 57.625 19.2084 64.5834 23.5 70.2084C28.5834 64.375 38.125 60.4167 50 60.4167C61.875 60.4167 71.4584 64.375 76.5 70.2084C80.9453 64.4108 83.3478 57.3056 83.3334 50H91.6667C91.6667 72.9167 72.9167 91.6667 50 91.6667C27.0834 91.6667 8.33337 72.9167 8.33337 50C8.33337 27.0834 27.0834 8.33337 50 8.33337C63.0834 8.33337 74.7917 14.375 82.4167 23.8334L89.5834 16.6667V37.5ZM50 29.1667C56.9167 29.1667 62.5 34.75 62.5 41.6667C62.5 48.5834 56.9167 54.1667 50 54.1667C43.0834 54.1667 37.5 48.5834 37.5 41.6667C37.5 34.75 43.0834 29.1667 50 29.1667Z" fill="white"/>
</svg>
