<svg width="43" height="23" viewBox="0 0 43 23" fill="none" xmlns="http://www.w3.org/2000/svg">
<path d="M39.9301 0.63963L21.5 18.6051L3.06987 0.63963C2.74058 0.317997 2.29854 0.137934 1.83824 0.137934C1.37794 0.137934 0.935902 0.317997 0.606616 0.63963C0.447177 0.795848 0.320511 0.982308 0.234039 1.18809C0.147567 1.39388 0.103027 1.61485 0.103027 1.83807C0.103027 2.06128 0.147567 2.28225 0.234039 2.48804C0.320511 2.69382 0.447177 2.88029 0.606616 3.0365L20.2131 22.1525C20.5574 22.4881 21.0192 22.6759 21.5 22.6759C21.9808 22.6759 22.4426 22.4881 22.7869 22.1525L42.3934 3.04019C42.5539 2.88386 42.6816 2.69694 42.7687 2.49047C42.8558 2.284 42.9007 2.06217 42.9007 1.83807C42.9007 1.61396 42.8558 1.39213 42.7687 1.18566C42.6816 0.979194 42.5539 0.792276 42.3934 0.635941C42.0641 0.314308 41.622 0.134247 41.1617 0.134247C40.7014 0.134247 40.2594 0.314308 39.9301 0.635941V0.63963Z" fill="white"/>
</svg>
