<svg width="153" height="48" viewBox="0 0 153 48" fill="none" xmlns="http://www.w3.org/2000/svg">
<path d="M55.3239 21.7102C55.2784 21.2519 55.0833 20.8958 54.7386 20.642C54.3939 20.3883 53.9261 20.2614 53.3352 20.2614C52.9337 20.2614 52.5947 20.3182 52.3182 20.4318C52.0417 20.5417 51.8295 20.6951 51.6818 20.892C51.5379 21.089 51.4659 21.3125 51.4659 21.5625C51.4583 21.7708 51.5019 21.9527 51.5966 22.108C51.6951 22.2633 51.8295 22.3977 52 22.5114C52.1705 22.6212 52.3674 22.7178 52.5909 22.8011C52.8144 22.8807 53.053 22.9489 53.3068 23.0057L54.3523 23.2557C54.8598 23.3693 55.3258 23.5208 55.75 23.7102C56.1742 23.8996 56.5417 24.1326 56.8523 24.4091C57.1629 24.6856 57.4034 25.0114 57.5739 25.3864C57.7481 25.7614 57.8371 26.1913 57.8409 26.6761C57.8371 27.3883 57.6553 28.0057 57.2955 28.5284C56.9394 29.0473 56.4242 29.4508 55.75 29.7386C55.0795 30.0227 54.2708 30.1648 53.3239 30.1648C52.3845 30.1648 51.5663 30.0208 50.8693 29.733C50.1761 29.4451 49.6345 29.0189 49.2443 28.4545C48.858 27.8864 48.6553 27.1837 48.6364 26.3466H51.017C51.0436 26.7367 51.1553 27.0625 51.3523 27.3239C51.553 27.5814 51.8201 27.7765 52.1534 27.9091C52.4905 28.0379 52.8712 28.1023 53.2955 28.1023C53.7121 28.1023 54.0739 28.0417 54.3807 27.9205C54.6913 27.7992 54.9318 27.6307 55.1023 27.4148C55.2727 27.1989 55.358 26.9508 55.358 26.6705C55.358 26.4091 55.2803 26.1894 55.125 26.0114C54.9735 25.8333 54.75 25.6818 54.4545 25.5568C54.1629 25.4318 53.8049 25.3182 53.3807 25.2159L52.1136 24.8977C51.1326 24.6591 50.358 24.286 49.7898 23.7784C49.2216 23.2708 48.9394 22.5871 48.9432 21.7273C48.9394 21.0227 49.1269 20.4072 49.5057 19.8807C49.8883 19.3542 50.4129 18.9432 51.0795 18.6477C51.7462 18.3523 52.5038 18.2045 53.3523 18.2045C54.2159 18.2045 54.9697 18.3523 55.6136 18.6477C56.2614 18.9432 56.7652 19.3542 57.125 19.8807C57.4848 20.4072 57.6705 21.017 57.6818 21.7102H55.3239ZM66.6832 18.3636H69.1435V25.9205C69.1435 26.7689 68.9408 27.5114 68.5355 28.1477C68.134 28.7841 67.5715 29.2803 66.848 29.6364C66.1245 29.9886 65.2817 30.1648 64.3196 30.1648C63.3537 30.1648 62.509 29.9886 61.7855 29.6364C61.062 29.2803 60.4995 28.7841 60.098 28.1477C59.6965 27.5114 59.4957 26.7689 59.4957 25.9205V18.3636H61.956V25.7102C61.956 26.1534 62.0526 26.5473 62.2457 26.892C62.4427 27.2367 62.7192 27.5076 63.0753 27.7045C63.4313 27.9015 63.8461 28 64.3196 28C64.7969 28 65.2116 27.9015 65.5639 27.7045C65.92 27.5076 66.1946 27.2367 66.3878 26.892C66.5848 26.5473 66.6832 26.1534 66.6832 25.7102V18.3636ZM71.1676 30V18.3636H75.7585C76.6373 18.3636 77.3873 18.5208 78.0085 18.8352C78.6335 19.1458 79.1089 19.5871 79.4347 20.1591C79.7642 20.7273 79.929 21.3958 79.929 22.1648C79.929 22.9375 79.7623 23.6023 79.429 24.1591C79.0956 24.7121 78.6127 25.1364 77.9801 25.4318C77.3513 25.7273 76.59 25.875 75.696 25.875H72.6222V23.8977H75.2983C75.768 23.8977 76.1581 23.8333 76.4688 23.7045C76.7794 23.5758 77.0104 23.3826 77.1619 23.125C77.3172 22.8674 77.3949 22.5473 77.3949 22.1648C77.3949 21.7784 77.3172 21.4527 77.1619 21.1875C77.0104 20.9223 76.7775 20.7216 76.4631 20.5852C76.1525 20.4451 75.7604 20.375 75.2869 20.375H73.6278V30H71.1676ZM77.4517 24.7045L80.3438 30H77.6278L74.7983 24.7045H77.4517ZM81.6676 30V18.3636H89.3722V20.392H84.1278V23.1648H88.8608V25.1932H84.1278V30H81.6676ZM93.4872 18.3636V30H91.027V18.3636H93.4872ZM105.244 18.3636V30H103.119L98.0568 22.6761H97.9716V30H95.5114V18.3636H97.6705L102.693 25.6818H102.795V18.3636H105.244ZM114.993 22.125C114.913 21.8485 114.802 21.6042 114.658 21.392C114.514 21.1761 114.338 20.9943 114.129 20.8466C113.925 20.6951 113.69 20.5795 113.425 20.5C113.163 20.4205 112.874 20.3807 112.555 20.3807C111.961 20.3807 111.438 20.5284 110.987 20.8239C110.54 21.1193 110.192 21.5492 109.942 22.1136C109.692 22.6742 109.567 23.3598 109.567 24.1705C109.567 24.9811 109.69 25.6705 109.936 26.2386C110.182 26.8068 110.531 27.2405 110.982 27.5398C111.432 27.8352 111.964 27.983 112.578 27.983C113.135 27.983 113.61 27.8845 114.004 27.6875C114.402 27.4867 114.705 27.2045 114.913 26.8409C115.125 26.4773 115.232 26.0473 115.232 25.5511L115.732 25.625H112.732V23.7727H117.601V25.2386C117.601 26.2614 117.385 27.1402 116.953 27.875C116.521 28.6061 115.927 29.1705 115.169 29.5682C114.411 29.9621 113.544 30.1591 112.567 30.1591C111.476 30.1591 110.518 29.9186 109.692 29.4375C108.866 28.9527 108.222 28.2652 107.76 27.375C107.302 26.4811 107.072 25.4205 107.072 24.1932C107.072 23.25 107.209 22.4091 107.482 21.6705C107.758 20.928 108.144 20.2992 108.641 19.7841C109.137 19.2689 109.714 18.8769 110.374 18.608C111.033 18.339 111.747 18.2045 112.516 18.2045C113.175 18.2045 113.788 18.3011 114.357 18.4943C114.925 18.6837 115.429 18.9527 115.868 19.3011C116.311 19.6496 116.673 20.0644 116.953 20.5455C117.233 21.0227 117.413 21.5492 117.493 22.125H114.993Z" fill="white"/>
<path d="M121.551 18.3636L124.364 27.2045H124.472L127.29 18.3636H130.017L126.006 30H122.835L118.818 18.3636H121.551ZM131.418 30V18.3636H136.009C136.891 18.3636 137.643 18.5322 138.264 18.8693C138.885 19.2027 139.359 19.6667 139.685 20.2614C140.014 20.8523 140.179 21.5341 140.179 22.3068C140.179 23.0795 140.012 23.7614 139.679 24.3523C139.346 24.9432 138.863 25.4034 138.23 25.733C137.601 26.0625 136.84 26.2273 135.946 26.2273H133.02V24.2557H135.548C136.022 24.2557 136.412 24.1742 136.719 24.0114C137.029 23.8447 137.26 23.6155 137.412 23.3239C137.567 23.0284 137.645 22.6894 137.645 22.3068C137.645 21.9205 137.567 21.5833 137.412 21.2955C137.26 21.0038 137.029 20.7784 136.719 20.6193C136.408 20.4564 136.014 20.375 135.537 20.375H133.878V30H131.418ZM151.51 18.3636V30H149.385L144.322 22.6761H144.237V30H141.777V18.3636H143.936L148.959 25.6818H149.061V18.3636H151.51Z" fill="#0FA2DB"/>
<path d="M6.76001 11C11.6095 7.0007 17.7145 4.84058 24 4.9C30.14 4.9 36.82 7.05 41.24 11.04M18.61 27.2C18.61 23.62 20.44 21.28 24.02 21.28C27.6 21.28 29.39 23.62 29.39 27.2H18.61ZM17.54 31C17.54 31 17.38 36.89 18.61 39.08C19.84 41.27 24 43.9 24 43.9C24 43.9 28.15 41.24 29.39 39.05C30.63 36.86 30.46 31 30.46 31C30.46 31 26.22 29.36 24 29.36C21.78 29.36 17.54 31 17.54 31ZM13.33 16.75C16.4212 14.4596 20.1532 13.197 24 13.14C27.8235 13.2075 31.53 14.4698 34.6 16.75H13.33Z" stroke="#0FA2DB" stroke-width="1.5" stroke-linecap="round" stroke-linejoin="round"/>
<path d="M24 32.39C23.5473 32.3926 23.1139 32.5736 22.7937 32.8938C22.4736 33.2139 22.2926 33.6473 22.29 34.1C22.2889 34.3233 22.3326 34.5445 22.4184 34.7507C22.5043 34.9568 22.6307 35.1436 22.79 35.3L22.3 38.72H25.71L25.2 35.3C25.3593 35.1436 25.4857 34.9568 25.5716 34.7507C25.6574 34.5445 25.7011 34.3233 25.7 34.1C25.7 33.6482 25.5212 33.2148 25.2027 32.8944C24.8842 32.574 24.4518 32.3927 24 32.39V32.39Z" stroke="#0FA2DB" stroke-width="1.5" stroke-linecap="round" stroke-linejoin="round"/>
</svg>
