<svg width="194" height="48" viewBox="0 0 194 48" fill="none" xmlns="http://www.w3.org/2000/svg">
<path d="M59.0742 27.6875C59.0742 27.2891 59.0117 26.9375 58.8867 26.6328C58.7695 26.3203 58.5586 26.0391 58.2539 25.7891C57.957 25.5391 57.543 25.3008 57.0117 25.0742C56.4883 24.8477 55.8242 24.6172 55.0195 24.3828C54.1758 24.1328 53.4141 23.8555 52.7344 23.5508C52.0547 23.2383 51.4727 22.8828 50.9883 22.4844C50.5039 22.0859 50.1328 21.6289 49.875 21.1133C49.6172 20.5977 49.4883 20.0078 49.4883 19.3438C49.4883 18.6797 49.625 18.0664 49.8984 17.5039C50.1719 16.9414 50.5625 16.4531 51.0703 16.0391C51.5859 15.6172 52.1992 15.2891 52.9102 15.0547C53.6211 14.8203 54.4141 14.7031 55.2891 14.7031C56.5703 14.7031 57.6562 14.9492 58.5469 15.4414C59.4453 15.9258 60.1289 16.5625 60.5977 17.3516C61.0664 18.1328 61.3008 18.9688 61.3008 19.8594H59.0508C59.0508 19.2188 58.9141 18.6523 58.6406 18.1602C58.3672 17.6602 57.9531 17.2695 57.3984 16.9883C56.8438 16.6992 56.1406 16.5547 55.2891 16.5547C54.4844 16.5547 53.8203 16.6758 53.2969 16.918C52.7734 17.1602 52.3828 17.4883 52.125 17.9023C51.875 18.3164 51.75 18.7891 51.75 19.3203C51.75 19.6797 51.8242 20.0078 51.9727 20.3047C52.1289 20.5938 52.3672 20.8633 52.6875 21.1133C53.0156 21.3633 53.4297 21.5938 53.9297 21.8047C54.4375 22.0156 55.043 22.2188 55.7461 22.4141C56.7148 22.6875 57.5508 22.9922 58.2539 23.3281C58.957 23.6641 59.5352 24.043 59.9883 24.4648C60.4492 24.8789 60.7891 25.3516 61.0078 25.8828C61.2344 26.4062 61.3477 27 61.3477 27.6641C61.3477 28.3594 61.207 28.9883 60.9258 29.5508C60.6445 30.1133 60.2422 30.5938 59.7188 30.9922C59.1953 31.3906 58.5664 31.6992 57.832 31.918C57.1055 32.1289 56.293 32.2344 55.3945 32.2344C54.6055 32.2344 53.8281 32.125 53.0625 31.9062C52.3047 31.6875 51.6133 31.3594 50.9883 30.9219C50.3711 30.4844 49.875 29.9453 49.5 29.3047C49.1328 28.6562 48.9492 27.9062 48.9492 27.0547H51.1992C51.1992 27.6406 51.3125 28.1445 51.5391 28.5664C51.7656 28.9805 52.0742 29.3242 52.4648 29.5977C52.8633 29.8711 53.3125 30.0742 53.8125 30.207C54.3203 30.332 54.8477 30.3945 55.3945 30.3945C56.1836 30.3945 56.8516 30.2852 57.3984 30.0664C57.9453 29.8477 58.3594 29.5352 58.6406 29.1289C58.9297 28.7227 59.0742 28.2422 59.0742 27.6875ZM73.9922 14.9375H76.2422V26.4805C76.2422 27.7617 75.957 28.8281 75.3867 29.6797C74.8164 30.5312 74.0586 31.1719 73.1133 31.6016C72.1758 32.0234 71.1562 32.2344 70.0547 32.2344C68.8984 32.2344 67.8516 32.0234 66.9141 31.6016C65.9844 31.1719 65.2461 30.5312 64.6992 29.6797C64.1602 28.8281 63.8906 27.7617 63.8906 26.4805V14.9375H66.1289V26.4805C66.1289 27.3711 66.293 28.1055 66.6211 28.6836C66.9492 29.2617 67.4062 29.6914 67.9922 29.9727C68.5859 30.2539 69.2734 30.3945 70.0547 30.3945C70.8438 30.3945 71.5312 30.2539 72.1172 29.9727C72.7109 29.6914 73.1719 29.2617 73.5 28.6836C73.8281 28.1055 73.9922 27.3711 73.9922 26.4805V14.9375ZM79.793 14.9375H85.4414C86.7227 14.9375 87.8047 15.1328 88.6875 15.5234C89.5781 15.9141 90.2539 16.4922 90.7148 17.2578C91.1836 18.0156 91.418 18.9492 91.418 20.0586C91.418 20.8398 91.2578 21.5547 90.9375 22.2031C90.625 22.8438 90.1719 23.3906 89.5781 23.8438C88.9922 24.2891 88.2891 24.6211 87.4688 24.8398L86.8359 25.0859H81.5273L81.5039 23.2461H85.5117C86.3242 23.2461 87 23.1055 87.5391 22.8242C88.0781 22.5352 88.4844 22.1484 88.7578 21.6641C89.0312 21.1797 89.168 20.6445 89.168 20.0586C89.168 19.4023 89.0391 18.8281 88.7812 18.3359C88.5234 17.8438 88.1172 17.4648 87.5625 17.1992C87.0156 16.9258 86.3086 16.7891 85.4414 16.7891H82.0547V32H79.793V14.9375ZM89.7656 32L85.6172 24.2656L87.9727 24.2539L92.1797 31.8594V32H89.7656ZM96.8438 14.9375V32H94.582V14.9375H96.8438ZM103.992 22.6133V24.4648H96.3516V22.6133H103.992ZM105.152 14.9375V16.7891H96.3516V14.9375H105.152ZM110.273 14.9375V32H108.012V14.9375H110.273ZM127.512 14.9375V32H125.238L116.648 18.8398V32H114.387V14.9375H116.648L125.273 28.1328V14.9375H127.512ZM144.129 23.5039V29.75C143.918 30.0625 143.582 30.4141 143.121 30.8047C142.66 31.1875 142.023 31.5234 141.211 31.8125C140.406 32.0938 139.367 32.2344 138.094 32.2344C137.055 32.2344 136.098 32.0547 135.223 31.6953C134.355 31.3281 133.602 30.7969 132.961 30.1016C132.328 29.3984 131.836 28.5469 131.484 27.5469C131.141 26.5391 130.969 25.3984 130.969 24.125V22.8008C130.969 21.5273 131.117 20.3906 131.414 19.3906C131.719 18.3906 132.164 17.543 132.75 16.8477C133.336 16.1445 134.055 15.6133 134.906 15.2539C135.758 14.8867 136.734 14.7031 137.836 14.7031C139.141 14.7031 140.23 14.9297 141.105 15.3828C141.988 15.8281 142.676 16.4453 143.168 17.2344C143.668 18.0234 143.988 18.9219 144.129 19.9297H141.867C141.766 19.3125 141.562 18.75 141.258 18.2422C140.961 17.7344 140.535 17.3281 139.98 17.0234C139.426 16.7109 138.711 16.5547 137.836 16.5547C137.047 16.5547 136.363 16.6992 135.785 16.9883C135.207 17.2773 134.73 17.6914 134.355 18.2305C133.98 18.7695 133.699 19.4219 133.512 20.1875C133.332 20.9531 133.242 21.8164 133.242 22.7773V24.125C133.242 25.1094 133.355 25.9883 133.582 26.7617C133.816 27.5352 134.148 28.1953 134.578 28.7422C135.008 29.2812 135.52 29.6914 136.113 29.9727C136.715 30.2539 137.379 30.3945 138.105 30.3945C138.91 30.3945 139.562 30.3281 140.062 30.1953C140.562 30.0547 140.953 29.8906 141.234 29.7031C141.516 29.5078 141.73 29.3242 141.879 29.1523V25.332H137.93V23.5039H144.129ZM153.387 29.4102L158.414 14.9375H160.863L154.547 32H152.801L153.387 29.4102ZM148.688 14.9375L153.668 29.4102L154.289 32H152.543L146.238 14.9375H148.688ZM169.453 25.3086H164.895V23.4688H169.453C170.336 23.4688 171.051 23.3281 171.598 23.0469C172.145 22.7656 172.543 22.375 172.793 21.875C173.051 21.375 173.18 20.8047 173.18 20.1641C173.18 19.5781 173.051 19.0273 172.793 18.5117C172.543 17.9961 172.145 17.582 171.598 17.2695C171.051 16.9492 170.336 16.7891 169.453 16.7891H165.422V32H163.16V14.9375H169.453C170.742 14.9375 171.832 15.1602 172.723 15.6055C173.613 16.0508 174.289 16.668 174.75 17.457C175.211 18.2383 175.441 19.1328 175.441 20.1406C175.441 21.2344 175.211 22.168 174.75 22.9414C174.289 23.7148 173.613 24.3047 172.723 24.7109C171.832 25.1094 170.742 25.3086 169.453 25.3086ZM191.426 14.9375V32H189.152L180.562 18.8398V32H178.301V14.9375H180.562L189.188 28.1328V14.9375H191.426Z" fill="white"/>
<path d="M6.75977 11C11.6092 7.0007 17.7142 4.84058 23.9998 4.9C30.1398 4.9 36.8198 7.05 41.2398 11.04M18.6098 27.2C18.6098 23.62 20.4398 21.28 24.0198 21.28C27.5998 21.28 29.3898 23.62 29.3898 27.2H18.6098ZM17.5398 31C17.5398 31 17.3798 36.89 18.6098 39.08C19.8398 41.27 23.9998 43.9 23.9998 43.9C23.9998 43.9 28.1498 41.24 29.3898 39.05C30.6298 36.86 30.4598 31 30.4598 31C30.4598 31 26.2198 29.36 23.9998 29.36C21.7798 29.36 17.5398 31 17.5398 31ZM13.3298 16.75C16.421 14.4596 20.1529 13.197 23.9998 13.14C27.8233 13.2075 31.5298 14.4698 34.5998 16.75H13.3298Z" stroke="#1DFAE5" stroke-width="1.5" stroke-linecap="round" stroke-linejoin="round"/>
<path d="M24.0001 32.39C23.5473 32.3926 23.1139 32.5736 22.7938 32.8938C22.4737 33.2139 22.2927 33.6473 22.2901 34.1C22.2889 34.3233 22.3326 34.5445 22.4185 34.7507C22.5044 34.9568 22.6307 35.1436 22.7901 35.3L22.3001 38.72H25.7101L25.2001 35.3C25.3594 35.1436 25.4857 34.9568 25.5716 34.7507C25.6575 34.5445 25.7012 34.3233 25.7001 34.1C25.7001 33.6482 25.5213 33.2148 25.2028 32.8944C24.8842 32.574 24.4518 32.3927 24.0001 32.39V32.39Z" stroke="#1DFAE5" stroke-width="1.5" stroke-linecap="round" stroke-linejoin="round"/>
</svg>
