<svg width="47" height="46" viewBox="0 0 47 46" fill="none" xmlns="http://www.w3.org/2000/svg">
<path fill-rule="evenodd" clip-rule="evenodd" d="M23.5 45.8333C36.1569 45.8333 46.4166 35.5735 46.4166 22.9167C46.4166 10.2598 36.1569 0 23.5 0C10.8431 0 0.583313 10.2598 0.583313 22.9167C0.583313 35.5735 10.8431 45.8333 23.5 45.8333ZM35.8085 15.6635C35.9157 15.5531 35.9996 15.4222 36.0551 15.2786C36.1106 15.1351 36.1366 14.9818 36.1316 14.8279C36.1265 14.6741 36.0905 14.5229 36.0258 14.3832C35.961 14.2436 35.8687 14.1185 35.7545 14.0153C35.6403 13.9121 35.5065 13.8329 35.3611 13.7826C35.2156 13.7323 35.0615 13.7118 34.9079 13.7223C34.7544 13.7328 34.6045 13.7742 34.4673 13.8439C34.3301 13.9136 34.2083 14.0103 34.1092 14.1281L20.3833 29.2955L12.8323 22.0871C12.6126 21.8771 12.3184 21.763 12.0146 21.7699C11.7107 21.7767 11.4221 21.904 11.2121 22.1237C11.0021 22.3435 10.888 22.6376 10.8948 22.9414C10.9017 23.2453 11.029 23.534 11.2487 23.744L19.6523 31.7648L20.5036 32.5783L21.2931 31.7052L35.8074 15.6635H35.8085Z" fill="#0FA2DB"/>
</svg>
