<svg width="31" height="31" viewBox="0 0 31 31" fill="none" xmlns="http://www.w3.org/2000/svg">
<path fill-rule="evenodd" clip-rule="evenodd" d="M15.5002 30.8697C24.0148 30.8697 30.9168 23.9677 30.9168 15.453C30.9168 6.93842 24.0148 0.036377 15.5002 0.036377C6.98554 0.036377 0.0834961 6.93842 0.0834961 15.453C0.0834961 23.9677 6.98554 30.8697 15.5002 30.8697ZM23.7805 10.5737C23.8526 10.4994 23.909 10.4113 23.9463 10.3147C23.9837 10.2181 24.0012 10.115 23.9978 10.0115C23.9944 9.90805 23.9702 9.8063 23.9266 9.71237C23.883 9.61844 23.821 9.53425 23.7441 9.46483C23.6673 9.39541 23.5773 9.34218 23.4794 9.30831C23.3816 9.27445 23.2779 9.26065 23.1746 9.26774C23.0713 9.27483 22.9705 9.30265 22.8782 9.34956C22.7859 9.39647 22.7039 9.46149 22.6373 9.54075L13.4035 19.7443L8.3237 14.895C8.17589 14.7537 7.97802 14.6769 7.77362 14.6816C7.56921 14.6862 7.37501 14.7718 7.23375 14.9196C7.09248 15.0674 7.01572 15.2653 7.02034 15.4697C7.02497 15.6741 7.1106 15.8683 7.25841 16.0096L12.9117 21.4054L13.4844 21.9527L14.0155 21.3653L23.7797 10.5737H23.7805Z" fill="#FF5050"/>
</svg>
