<svg width="48" height="48" viewBox="0 0 48 48" fill="none" xmlns="http://www.w3.org/2000/svg">
<path d="M6.75977 11C11.6092 7.0007 17.7142 4.84058 23.9998 4.9C30.1398 4.9 36.8198 7.05 41.2398 11.04M18.6098 27.2C18.6098 23.62 20.4398 21.28 24.0198 21.28C27.5998 21.28 29.3898 23.62 29.3898 27.2H18.6098ZM17.5398 31C17.5398 31 17.3798 36.89 18.6098 39.08C19.8398 41.27 23.9998 43.9 23.9998 43.9C23.9998 43.9 28.1498 41.24 29.3898 39.05C30.6298 36.86 30.4598 31 30.4598 31C30.4598 31 26.2198 29.36 23.9998 29.36C21.7798 29.36 17.5398 31 17.5398 31ZM13.3298 16.75C16.421 14.4596 20.1529 13.197 23.9998 13.14C27.8233 13.2075 31.5298 14.4698 34.5998 16.75H13.3298Z" stroke="#1DFAE5" stroke-width="1.5" stroke-linecap="round" stroke-linejoin="round"/>
<path d="M24.0001 32.39C23.5473 32.3926 23.1139 32.5736 22.7938 32.8938C22.4737 33.2139 22.2927 33.6473 22.2901 34.1C22.2889 34.3233 22.3326 34.5445 22.4185 34.7507C22.5044 34.9568 22.6307 35.1436 22.7901 35.3L22.3001 38.72H25.7101L25.2001 35.3C25.3594 35.1436 25.4857 34.9568 25.5716 34.7507C25.6575 34.5445 25.7012 34.3233 25.7001 34.1C25.7001 33.6482 25.5213 33.2148 25.2028 32.8944C24.8842 32.574 24.4518 32.3927 24.0001 32.39V32.39Z" stroke="#1DFAE5" stroke-width="1.5" stroke-linecap="round" stroke-linejoin="round"/>
</svg>
