<svg width="40" height="40" viewBox="0 0 40 40" fill="none" xmlns="http://www.w3.org/2000/svg">
<path d="M10.9052 9.13831C13.1242 7.27477 15.8634 6.13999 18.7502 5.88831V8.74998C18.7502 9.0815 18.8819 9.39944 19.1163 9.63386C19.3507 9.86828 19.6686 9.99998 20.0002 9.99998C20.3317 9.99998 20.6496 9.86828 20.884 9.63386C21.1185 9.39944 21.2502 9.0815 21.2502 8.74998V5.88831C24.6338 6.18885 27.7969 7.69493 30.1632 10.1322C32.5294 12.5694 33.9414 15.7756 34.1418 19.1666H31.2502C30.9186 19.1666 30.6007 19.2983 30.3663 19.5328C30.1319 19.7672 30.0002 20.0851 30.0002 20.4166C30.0002 20.7482 30.1319 21.0661 30.3663 21.3005C30.6007 21.5349 30.9186 21.6666 31.2502 21.6666H34.0735C33.6402 25.52 31.7018 28.7466 28.7935 31.1133C28.5362 31.3228 28.3727 31.626 28.339 31.956C28.3052 32.2861 28.404 32.6161 28.6135 32.8733C28.823 33.1306 29.1262 33.2941 29.4562 33.3278C29.7863 33.3616 30.1162 33.2628 30.3735 33.0533C34.0835 30.0316 36.4902 25.73 36.6568 20.5783C36.6679 20.4921 36.6702 20.405 36.6635 20.3183L36.6668 20C36.6668 10.795 29.2052 3.33331 20.0002 3.33331C10.7952 3.33331 3.3335 10.795 3.3335 20C3.3335 25.42 5.87183 29.9233 9.61683 33.0433C9.87246 33.2461 10.1973 33.341 10.5219 33.3075C10.8465 33.2741 11.1452 33.115 11.3541 32.8643C11.563 32.6136 11.6656 32.2912 11.6399 31.9659C11.6143 31.6406 11.4624 31.3382 11.2168 31.1233C8.36683 28.7466 6.3785 25.5116 5.93016 21.6666H8.75016C9.08168 21.6666 9.39963 21.5349 9.63405 21.3005C9.86847 21.0661 10.0002 20.7482 10.0002 20.4166C10.0002 20.0851 9.86847 19.7672 9.63405 19.5328C9.39963 19.2983 9.08168 19.1666 8.75016 19.1666H5.85683C6.04016 16.03 7.24183 13.1666 9.1385 10.905L11.2002 12.9666C11.4371 13.1874 11.7505 13.3077 12.0744 13.3019C12.3982 13.2962 12.7072 13.165 12.9362 12.936C13.1652 12.707 13.2964 12.398 13.3021 12.0742C13.3078 11.7503 13.1876 11.4369 12.9668 11.2L10.9052 9.13831ZM27.9335 11.0566C27.7398 10.9075 27.5011 10.8287 27.2566 10.8332C27.0122 10.8378 26.7765 10.9254 26.5885 11.0816L26.2252 11.3866C24.9148 12.4871 23.6086 13.5927 22.3068 14.7033C21.2135 15.6366 20.0952 16.6033 19.2018 17.3916C18.815 17.7316 18.4322 18.0761 18.0535 18.425C17.8063 18.6464 17.5725 18.8824 17.3535 19.1316C17.095 19.4499 16.9031 19.8168 16.789 20.2106C16.675 20.6044 16.6413 21.0171 16.6898 21.4242C16.7383 21.8313 16.868 22.2245 17.0714 22.5805C17.2747 22.9365 17.5475 23.2481 17.8735 23.4966C18.5375 24.0086 19.3748 24.2417 20.2078 24.1465C21.0407 24.0512 21.8039 23.6352 22.3352 22.9866C22.4818 22.8066 22.6768 22.4933 22.8768 22.1583C23.0902 21.8 23.3518 21.3416 23.6418 20.8283C24.2202 19.795 24.9218 18.5083 25.6002 17.2533C26.4058 15.7583 27.2052 14.2599 27.9985 12.7583L28.2168 12.3433C28.329 12.1299 28.3621 11.8837 28.3103 11.6482C28.2584 11.4127 28.125 11.2032 27.9335 11.0566Z" fill="white"/>
</svg>
