<svg width="40" height="40" viewBox="0 0 40 40" fill="none" xmlns="http://www.w3.org/2000/svg">
<path d="M11.6665 36.6667C10.7498 36.6667 9.96539 36.3406 9.31317 35.6884C8.65984 35.035 8.33317 34.25 8.33317 33.3334C8.33317 32.4167 8.65984 31.6317 9.31317 30.9784C9.96539 30.3261 10.7498 30 11.6665 30C12.5832 30 13.3676 30.3261 14.0198 30.9784C14.6732 31.6317 14.9998 32.4167 14.9998 33.3334C14.9998 34.25 14.6732 35.035 14.0198 35.6884C13.3676 36.3406 12.5832 36.6667 11.6665 36.6667ZM28.3332 36.6667C27.4165 36.6667 26.6321 36.3406 25.9798 35.6884C25.3265 35.035 24.9998 34.25 24.9998 33.3334C24.9998 32.4167 25.3265 31.6317 25.9798 30.9784C26.6321 30.3261 27.4165 30 28.3332 30C29.2498 30 30.0348 30.3261 30.6882 30.9784C31.3404 31.6317 31.6665 32.4167 31.6665 33.3334C31.6665 34.25 31.3404 35.035 30.6882 35.6884C30.0348 36.3406 29.2498 36.6667 28.3332 36.6667ZM19.9998 15.8334C19.5276 15.8334 19.1321 15.6734 18.8132 15.3534C18.4932 15.0345 18.3332 14.6389 18.3332 14.1667C18.3332 13.6945 18.4932 13.2984 18.8132 12.9784C19.1321 12.6595 19.5276 12.5 19.9998 12.5C20.4721 12.5 20.8682 12.6595 21.1882 12.9784C21.5071 13.2984 21.6665 13.6945 21.6665 14.1667C21.6665 14.6389 21.5071 15.0345 21.1882 15.3534C20.8682 15.6734 20.4721 15.8334 19.9998 15.8334ZM18.3332 10V1.66669H21.6665V10H18.3332ZM11.6665 28.3334C10.3887 28.3334 9.42373 27.7845 8.7715 26.6867C8.11817 25.59 8.11095 24.5 8.74984 23.4167L10.9998 19.3334L4.99984 6.66669H3.33317C2.86095 6.66669 2.46539 6.50669 2.1465 6.18669C1.8265 5.8678 1.6665 5.47224 1.6665 5.00002C1.6665 4.5278 1.8265 4.13169 2.1465 3.81169C2.46539 3.4928 2.86095 3.33335 3.33317 3.33335H6.08317C6.38873 3.33335 6.68039 3.41669 6.95817 3.58335C7.23595 3.75002 7.44428 3.98613 7.58317 4.29169L14.2082 18.3334H25.9165L31.9165 7.50002C32.0554 7.25002 32.2498 7.04835 32.4998 6.89502C32.7498 6.7428 33.0276 6.66669 33.3332 6.66669C33.9721 6.66669 34.4515 6.93724 34.7715 7.47835C35.0904 8.02058 35.0971 8.56946 34.7915 9.12502L28.8332 19.9167C28.5276 20.4722 28.1176 20.9028 27.6032 21.2084C27.0898 21.5139 26.5276 21.6667 25.9165 21.6667H13.4998L11.6665 25H29.9998C30.4721 25 30.8676 25.1595 31.1865 25.4784C31.5065 25.7984 31.6665 26.1945 31.6665 26.6667C31.6665 27.1389 31.5065 27.5345 31.1865 27.8534C30.8676 28.1734 30.4721 28.3334 29.9998 28.3334H11.6665Z" fill="white"/>
</svg>
