<svg width="30" height="40" viewBox="0 0 30 40" fill="none" xmlns="http://www.w3.org/2000/svg">
<path d="M20.5851 25.1853V20.7408C20.5851 19.1692 19.9607 17.6619 18.8494 16.5506C17.7381 15.4393 16.2308 14.8149 14.6592 14.8149C13.0875 14.8149 11.5803 15.4393 10.4689 16.5506C9.35762 17.6619 8.73329 19.1692 8.73329 20.7408V25.1853C7.94771 25.186 7.19453 25.4985 6.63904 26.054C6.08354 26.6094 5.77113 27.3626 5.77034 28.1482V37.0371C5.77113 37.8226 6.08354 38.5758 6.63904 39.1313C7.19453 39.6868 7.94771 39.9992 8.73329 40H20.5851C21.3707 39.9992 22.1238 39.6868 22.6793 39.1313C23.2348 38.5758 23.5472 37.8226 23.548 37.0371V28.1482C23.5472 27.3626 23.2348 26.6094 22.6793 26.054C22.1238 25.4985 21.3707 25.186 20.5851 25.1853ZM11.6962 20.7408C11.6962 19.955 12.0084 19.2014 12.5641 18.6457C13.1197 18.0901 13.8734 17.7779 14.6592 17.7779C15.445 17.7779 16.1986 18.0901 16.7543 18.6457C17.31 19.2014 17.6221 19.955 17.6221 20.7408V25.1853H11.6962V20.7408ZM8.73329 37.0371V28.1482H20.5851V37.0371H8.73329ZM0 6.08165L2.0948 8.17646C3.7434 6.52401 5.70176 5.213 7.85775 4.31849C10.0137 3.42398 12.325 2.96354 14.6592 2.96354C16.9934 2.96354 19.3046 3.42398 21.4606 4.31849C23.6166 5.213 25.575 6.52401 27.2236 8.17646L29.3184 6.08165C27.3949 4.15382 25.11 2.62432 22.5945 1.58075C20.0791 0.537167 17.3825 0 14.6592 0C11.9359 0 9.23929 0.537167 6.72385 1.58075C4.20841 2.62432 1.92352 4.15382 0 6.08165Z" fill="white"/>
</svg>
