<svg width="40" height="40" viewBox="0 0 40 40" fill="none" xmlns="http://www.w3.org/2000/svg">
<path d="M13.3335 37.5V28.2917C10.5279 28.0695 8.16016 26.9306 6.23016 24.875C4.29905 22.8195 3.3335 20.3611 3.3335 17.5C3.3335 14.4722 4.38239 11.9095 6.48016 9.81169C8.57683 7.71502 11.1391 6.66669 14.1668 6.66669H15.2918L12.6668 4.00002L15.0002 1.66669L21.6668 8.33335L15.0002 15L12.6668 12.6667L15.2918 10H14.1668C12.0835 10 10.3124 10.7289 8.8535 12.1867C7.39572 13.6456 6.66683 15.4167 6.66683 17.5C6.66683 19.5834 7.39572 21.3545 8.8535 22.8134C10.3124 24.2711 12.0835 25 14.1668 25H16.6668V29.4584L21.1252 25H25.8335C27.9168 25 29.6879 24.2711 31.1468 22.8134C32.6046 21.3545 33.3335 19.5834 33.3335 17.5C33.3335 15.4167 32.6046 13.6456 31.1468 12.1867C29.6879 10.7289 27.9168 10 25.8335 10H25.0002V6.66669H25.8335C28.8613 6.66669 31.4241 7.71502 33.5218 9.81169C35.6185 11.9095 36.6668 14.4722 36.6668 17.5C36.6668 20.5278 35.6185 23.0906 33.5218 25.1884C31.4241 27.285 28.8613 28.3334 25.8335 28.3334H22.5002L13.3335 37.5Z" fill="white"/>
</svg>
