<svg width="120" height="120" viewBox="0 0 120 120" fill="none" xmlns="http://www.w3.org/2000/svg">
<path d="M94.76 87.69C91.015 83.945 90.22 78.345 92.26 73.46L92.365 73.215C94.36 68.345 98.91 65 104.175 65H104.575C107.765 65 110 62.765 110 60C110 57.235 107.765 55 105 55H104.15C98.885 55 94.36 51.655 92.365 46.78L92.26 46.535C90.22 41.65 91.015 36.05 94.76 32.305L95.355 31.71C95.8192 31.2458 96.1875 30.6947 96.4387 30.0881C96.6899 29.4816 96.8192 28.8315 96.8192 28.175C96.8192 27.5185 96.6899 26.8684 96.4387 26.2619C96.1875 25.6553 95.8192 25.1042 95.355 24.64C94.8908 24.1758 94.3397 23.8075 93.7331 23.5563C93.1266 23.3051 92.4765 23.1758 91.82 23.1758C91.1635 23.1758 90.5134 23.3051 89.9069 23.5563C89.3003 23.8075 88.7492 24.1758 88.285 24.64L87.69 25.235C83.945 28.98 78.345 29.775 73.46 27.735L73.215 27.63C68.345 25.64 65 21.09 65 15.825V15.42C65 12.235 62.765 10 60 10C57.235 10 55 12.235 55 15V15.18C55 20.66 51.7 25.6 46.635 27.695L46.605 27.71C44.129 28.7349 41.4047 29.0026 38.7766 28.4793C36.1485 27.956 33.7346 26.6651 31.84 24.77L31.715 24.645L18.535 11.465L11.465 18.535L101.465 108.535L108.535 101.465L95.355 88.285L94.76 87.69ZM60 50C60 48.0222 60.5865 46.0888 61.6853 44.4443C62.7841 42.7998 64.3459 41.5181 66.1732 40.7612C68.0004 40.0043 70.0111 39.8063 71.9509 40.1921C73.8907 40.578 75.6725 41.5304 77.0711 42.9289C78.4696 44.3275 79.422 46.1093 79.8079 48.0491C80.1937 49.9889 79.9957 51.9996 79.2388 53.8268C78.4819 55.6541 77.2002 57.2159 75.5557 58.3147C73.9112 59.4135 71.9778 60 70 60C68.715 60 67.495 59.735 66.36 59.29L60.705 53.635C60.2455 52.4779 60.0064 51.245 60 50V50ZM40 65C38.6739 65 37.4021 64.4732 36.4645 63.5355C35.5268 62.5979 35 61.3261 35 60C35.0189 58.8308 35.4511 57.706 36.22 56.825L27.155 47.76C26.0594 49.9326 24.3834 51.7592 22.3128 53.0372C20.2423 54.3152 17.8582 54.9946 15.425 55H15.42C12.235 55 10 57.235 10 60C10 62.765 12.235 65 15 65H15.34C17.9729 64.9993 20.5467 65.7801 22.7354 67.2434C24.9242 68.7067 26.6294 70.7868 27.635 73.22L27.74 73.465C28.7553 75.921 29.0203 78.6227 28.5015 81.2292C27.9827 83.8356 26.7034 86.23 24.825 88.11L24.645 88.29C23.7075 89.2275 23.1808 90.4991 23.1808 91.825C23.1808 93.1509 23.7075 94.4225 24.645 95.36C25.5825 96.2975 26.8541 96.8242 28.18 96.8242C29.5059 96.8242 30.7775 96.2975 31.715 95.36L31.895 95.18C33.7747 93.301 36.169 92.0213 38.7756 91.5025C41.3822 90.9837 44.0841 91.249 46.54 92.265L47.255 92.565C49.5482 93.5118 51.5086 95.1184 52.8874 97.1809C54.2663 99.2434 55.0016 101.669 55 104.15V104.575C55 107.765 57.235 110 60 110C62.765 110 65 107.76 65 105V104.15C65 99.27 67.84 94.885 72.215 92.82L43.17 63.775C42.2933 64.5484 41.169 64.9829 40 65Z" fill="#333333"/>
</svg>
