<svg width="120" height="120" viewBox="0 0 120 120" fill="none" xmlns="http://www.w3.org/2000/svg">
<path d="M60 109.1V101.8C65.4893 101.8 70.9248 100.719 75.9962 98.6182C81.0676 96.5175 85.6756 93.4386 89.5571 89.5571C93.4386 85.6756 96.5175 81.0676 98.6182 75.9962C100.719 70.9248 101.8 65.4893 101.8 60C101.8 54.5107 100.719 49.0752 98.6182 44.0038C96.5175 38.9324 93.4386 34.3244 89.5571 30.4429C85.6756 26.5614 81.0676 23.4825 75.9962 21.3818C70.9248 19.2812 65.4893 18.2 60 18.2V10.9C73.0181 10.9132 85.4992 16.0905 94.7043 25.2957C103.909 34.5008 109.087 46.9819 109.1 60C109.087 73.0181 103.909 85.4992 94.7043 94.7043C85.4992 103.909 73.0181 109.087 60 109.1V109.1ZM60 83.65C66.2683 83.6368 72.2761 81.1409 76.7085 76.7085C81.1409 72.2761 83.6368 66.2683 83.65 60C83.6368 53.7317 81.1409 47.7239 76.7085 43.2915C72.2761 38.8591 66.2683 36.3632 60 36.35V29.1C64.0597 29.0934 68.0808 29.8882 71.8327 31.4387C75.5846 32.9892 78.9936 35.2651 81.8643 38.1357C84.7349 41.0064 87.0107 44.4154 88.5613 48.1673C90.1118 51.9192 90.9066 55.9403 90.9 60C90.9066 64.0597 90.1118 68.0808 88.5613 71.8327C87.0107 75.5846 84.7349 78.9936 81.8643 81.8643C78.9936 84.7349 75.5846 87.0107 71.8327 88.5613C68.0808 90.1118 64.0597 90.9066 60 90.9V83.65ZM60 47.3C61.672 47.2934 63.3288 47.6171 64.8754 48.2523C66.422 48.8876 67.828 49.8221 69.0126 51.002C70.1972 52.182 71.1371 53.5842 71.7785 55.1283C72.4199 56.6724 72.75 58.328 72.75 60C72.75 61.672 72.4199 63.3276 71.7785 64.8717C71.1371 66.4158 70.1972 67.818 69.0126 68.998C67.828 70.1779 66.422 71.1124 64.8754 71.7477C63.3288 72.3829 61.672 72.7066 60 72.7V47.3ZM0 60C0 75.913 6.32141 91.1742 17.5736 102.426C28.8258 113.679 44.087 120 60 120C75.913 120 91.1742 113.679 102.426 102.426C113.679 91.1742 120 75.913 120 60C120 44.087 113.679 28.8258 102.426 17.5736C91.1742 6.32141 75.913 0 60 0C44.087 0 28.8258 6.32141 17.5736 17.5736C6.32141 28.8258 0 44.087 0 60H0Z" fill="#333333"/>
</svg>
