<svg width="80" height="80" viewBox="0 0 80 80" fill="none" xmlns="http://www.w3.org/2000/svg">
<path d="M65 50H50V45H65V50ZM75 70H60V65H75V70ZM70 60H55V55H70V60Z" fill="black"/>
<path d="M42.5075 50C42.4899 47.8905 41.9272 45.8214 40.8742 43.9935C39.8212 42.1656 38.3135 40.6409 36.4975 39.5675L55 7.5L50.675 5L31.7325 37.815C29.4077 37.2957 26.9899 37.3675 24.7 38.0239C22.4102 38.6803 20.3215 39.9004 18.625 41.5725C9.26498 50.6 9.98998 71.705 10.025 72.6C10.0508 73.2456 10.3256 73.856 10.7917 74.3035C11.2577 74.7509 11.8789 75.0005 12.525 75H50.0025C50.5272 75 51.0386 74.8349 51.4643 74.5281C51.8899 74.2213 52.2083 73.7883 52.3742 73.2906C52.5401 72.7928 52.5452 72.2554 52.3888 71.7546C52.2323 71.2537 51.9222 70.8148 51.5025 70.5C42.6525 63.86 42.5075 50.135 42.5075 50ZM29.825 42.4925C31.8259 42.5145 33.7413 43.3071 35.1727 44.7054C36.6041 46.1038 37.4413 48.0001 37.51 50C37.51 50.095 37.515 50.52 37.5525 51.1725L22.8025 44.6125C23.7741 43.8113 24.8953 43.2113 26.1009 42.8474C27.3064 42.4834 28.5724 42.3628 29.825 42.4925ZM38.625 70C36.6267 67.9653 35.353 65.3299 35 62.5H30C30.179 65.1607 31.0101 67.7364 32.42 70H26.8625C25.8344 66.7555 25.2088 63.397 25 60H20C20.1612 63.3869 20.7192 66.7431 21.6625 70H15C15.0775 65.41 15.725 55.27 19.5075 48.6175L38.34 56.9925C39.2448 61.6908 41.1739 66.1319 43.99 70H38.625Z" fill="black"/>
</svg>
