<svg width="65" height="65" viewBox="0 0 65 65" fill="none" xmlns="http://www.w3.org/2000/svg">
<path fill-rule="evenodd" clip-rule="evenodd" d="M29.8756 34.6694L15.3427 7.33415C15.2592 7.17712 15.2075 7.00519 15.1904 6.82817C15.1734 6.65114 15.1914 6.47249 15.2434 6.30242C15.3484 5.95895 15.5855 5.67126 15.9027 5.50264C16.2198 5.33402 16.5909 5.29828 16.9344 5.40329C17.1045 5.45529 17.2626 5.54027 17.3999 5.65339C17.5371 5.76652 17.6507 5.90556 17.7342 6.06258L32.2685 33.3978L34.3295 32.3009C34.9577 31.967 35.6455 31.76 36.3536 31.6919C37.0618 31.6238 37.7764 31.6959 38.4567 31.904C39.137 32.1121 39.7697 32.4522 40.3186 32.9048C40.8674 33.3575 41.3217 33.9138 41.6555 34.5421L42.533 36.1928L51.8362 49.8076L40.0035 56.0977L35.9044 47.9957L33.4886 49.2185L37.612 57.3706L32.5393 60.0667L26.4523 44.7403L25.5762 43.0909C25.2421 42.4628 25.0351 41.7751 24.9669 41.067C24.8987 40.3589 24.9707 39.6443 25.1787 38.964C25.3866 38.2837 25.7266 37.651 26.1791 37.1021C26.6316 36.5532 27.1878 36.0988 27.816 35.7649L29.877 34.6694H29.8756ZM35.5997 34.6937L29.0862 38.1563C28.7721 38.3233 28.494 38.5505 28.2677 38.825C28.0415 39.0994 27.8715 39.4157 27.7675 39.7559C27.6635 40.096 27.6275 40.4533 27.6616 40.8074C27.6957 41.1614 27.7993 41.5053 27.9663 41.8194L28.8424 43.4687L40.1402 37.4616L39.2627 35.8136C39.0958 35.4996 38.8686 35.2215 38.5941 34.9952C38.3197 34.7689 38.0033 34.599 37.6632 34.495C37.323 34.391 36.9657 34.355 36.6117 34.3891C36.2576 34.4232 35.9137 34.5267 35.5997 34.6937Z" fill="black"/>
<path d="M24.0608 47.8833C23.8311 47.6073 23.5012 47.4339 23.1436 47.4012C22.7861 47.3684 22.4302 47.479 22.1541 47.7086H22.1568L22.1419 47.7194L22.0566 47.7844C21.9354 47.8755 21.8117 47.9631 21.6856 48.0471C21.3498 48.2706 20.8487 48.5752 20.2041 48.8813C18.5473 49.6776 16.734 50.0953 14.8958 50.1041C14.5366 50.1041 14.1922 50.2468 13.9383 50.5007C13.6843 50.7547 13.5416 51.0991 13.5416 51.4583C13.5416 51.8174 13.6843 52.1618 13.9383 52.4158C14.1922 52.6698 14.5366 52.8124 14.8958 52.8124C17.1369 52.8038 19.3481 52.2963 21.3687 51.3269C21.999 51.0285 22.6072 50.6854 23.1887 50.3004C23.4064 50.1548 23.6187 50.0012 23.8252 49.84L23.8658 49.8089L23.8793 49.7981L23.8834 49.7926H23.8861L23.8875 49.7899C24.1632 49.56 24.3363 49.23 24.3688 48.8725C24.4014 48.5149 24.2905 48.1591 24.0608 47.8833ZM26.8558 54.7692C26.9545 54.9171 27.0231 55.0831 27.0577 55.2576C27.0923 55.432 27.0921 55.6116 27.0573 55.786C27.0225 55.9604 26.9536 56.1263 26.8547 56.2741C26.7557 56.4219 26.6287 56.5487 26.4807 56.6474L26.478 56.6501L26.4726 56.6528L26.459 56.661L26.417 56.6881C26.1826 56.8372 25.9446 56.9808 25.7034 57.1187C25.2281 57.3909 24.5524 57.7524 23.7399 58.1126C22.1419 58.8236 19.9076 59.5833 17.6041 59.5833C17.245 59.5833 16.9005 59.4406 16.6466 59.1866C16.3926 58.9327 16.25 58.5882 16.25 58.2291C16.25 57.8699 16.3926 57.5255 16.6466 57.2716C16.9005 57.0176 17.245 56.8749 17.6041 56.8749C19.3618 56.8749 21.1927 56.2804 22.6403 55.6372C23.3944 55.3007 24.1263 54.9163 24.8313 54.4862C24.8708 54.4629 24.9096 54.4385 24.9478 54.4131L24.9749 54.3968L24.9776 54.3941C25.1255 54.2954 25.2915 54.2268 25.4659 54.1922C25.6404 54.1576 25.82 54.1578 25.9944 54.1926C26.1688 54.2274 26.3346 54.2963 26.4824 54.3952C26.6302 54.4941 26.7571 54.6212 26.8558 54.7692Z" fill="black"/>
</svg>
