<svg width="80" height="80" viewBox="0 0 80 80" fill="none" xmlns="http://www.w3.org/2000/svg">
<path d="M63.3333 13.3334H16.6667C14.8986 13.3334 13.2029 14.0358 11.9526 15.286C10.7024 16.5362 10 18.2319 10 20V60C10 63.6667 13 66.6667 16.6667 66.6667H26.6667C28.5 66.6667 30 65.1667 30 63.3334C30 61.5 28.5 60 26.6667 60H16.6667V26.6667H63.3333V60H53.3333C51.5 60 50 61.5 50 63.3334C50 65.1667 51.5 66.6667 53.3333 66.6667H63.3333C67 66.6667 70 63.6667 70 60V20C70 18.2319 69.2976 16.5362 68.0474 15.286C66.7971 14.0358 65.1014 13.3334 63.3333 13.3334V13.3334ZM38.8333 34.5L29.5333 43.8C28.4667 44.8667 29.2 46.6667 30.7 46.6667H36.6667V63.3334C36.6667 65.1667 38.1667 66.6667 40 66.6667C41.8333 66.6667 43.3333 65.1667 43.3333 63.3334V46.6667H49.3C50.8 46.6667 51.5333 44.8667 50.4667 43.8334L41.1667 34.5334C40.5333 33.8667 39.4667 33.8667 38.8333 34.5V34.5Z" fill="black"/>
</svg>
