<svg width="120" height="120" viewBox="0 0 120 120" fill="none" xmlns="http://www.w3.org/2000/svg">
<path d="M51.25 55.625C50.4212 55.625 49.6263 55.9542 49.0403 56.5403C48.4542 57.1263 48.125 57.9212 48.125 58.75C48.125 59.5788 48.4542 60.3737 49.0403 60.9597C49.6263 61.5458 50.4212 61.875 51.25 61.875H67.5075C68.875 60.805 70.3325 59.8425 71.865 59C71.8995 58.5699 71.8446 58.1374 71.7037 57.7296C71.5628 57.3218 71.339 56.9476 71.0464 56.6305C70.7538 56.3135 70.3987 56.0604 70.0035 55.8874C69.6082 55.7143 69.1815 55.625 68.75 55.625H51.25ZM38.75 98.125H56.775C57.5375 100.325 58.5275 102.418 59.7175 104.375H38.75C33.943 104.375 29.3328 102.465 25.9337 99.0663C22.5346 95.6672 20.625 91.057 20.625 86.25V43.2925C19.1158 42.4962 17.8526 41.3031 16.9715 39.8418C16.0904 38.3805 15.6248 36.7064 15.625 35V25C15.625 22.5136 16.6127 20.129 18.3709 18.3709C20.129 16.6127 22.5136 15.625 25 15.625H95C97.4864 15.625 99.871 16.6127 101.629 18.3709C103.387 20.129 104.375 22.5136 104.375 25V35C104.375 36.7064 103.91 38.3805 103.029 39.8418C102.147 41.3031 100.884 42.4962 99.375 43.2925V57.2375C97.3559 56.4448 95.2619 55.8577 93.125 55.485V44.375H26.875V86.25C26.875 87.8094 27.1822 89.3536 27.7789 90.7944C28.3757 92.2351 29.2504 93.5442 30.3531 94.6469C31.4558 95.7496 32.7649 96.6243 34.2056 97.2211C35.6464 97.8178 37.1906 98.125 38.75 98.125V98.125ZM25 21.875C23.275 21.875 21.875 23.275 21.875 25V35C21.875 36.725 23.275 38.125 25 38.125H95C96.725 38.125 98.125 36.725 98.125 35V25C98.125 23.275 96.725 21.875 95 21.875H25ZM115 87.5C115 102.687 102.687 115 87.5 115C72.3125 115 60 102.687 60 87.5C60 72.3125 72.3125 60 87.5 60C102.687 60 115 72.3125 115 87.5ZM79.2675 79.2675C79.7229 78.796 79.9749 78.1645 79.9692 77.509C79.9635 76.8535 79.7006 76.2265 79.237 75.763C78.7735 75.2994 78.1465 75.0365 77.491 75.0308C76.8355 75.0251 76.204 75.2771 75.7325 75.7325L68.2325 83.2325C67.7638 83.7013 67.5005 84.3371 67.5005 85C67.5005 85.6629 67.7638 86.2987 68.2325 86.7675L75.7325 94.2675C76.204 94.7229 76.8355 94.9749 77.491 94.9692C78.1465 94.9635 78.7735 94.7006 79.237 94.2371C79.7006 93.7735 79.9635 93.1465 79.9692 92.491C79.9749 91.8355 79.7229 91.204 79.2675 90.7325L76.035 87.5H90C92.6522 87.5 95.1957 88.5536 97.0711 90.4289C98.9464 92.3043 100 94.8478 100 97.5C100 98.163 100.263 98.7989 100.732 99.2678C101.201 99.7366 101.837 100 102.5 100C103.163 100 103.799 99.7366 104.268 99.2678C104.737 98.7989 105 98.163 105 97.5C105 93.5218 103.42 89.7064 100.607 86.8934C97.7936 84.0804 93.9782 82.5 90 82.5H76.035L79.2675 79.2675Z" fill="#333333"/>
</svg>
