<svg width="60" height="60" viewBox="0 0 60 60" fill="none" xmlns="http://www.w3.org/2000/svg">
<path d="M53.125 18.7499C53.5781 18.75 54.0159 18.914 54.3573 19.2119C54.6988 19.5097 54.9209 19.9211 54.9825 20.3699L55 20.6249V41.8749C55.0001 43.9503 54.2061 45.947 52.7808 47.4555C51.3555 48.964 49.407 49.8699 47.335 49.9874L46.875 49.9999H15.1525L16.9525 51.7999C17.2697 52.1177 17.4623 52.5388 17.4953 52.9865C17.5283 53.4343 17.3996 53.8791 17.1325 54.2399L16.95 54.4499C16.6325 54.7675 16.2116 54.9606 15.7639 54.994C15.3161 55.0275 14.8712 54.8992 14.51 54.6324L14.3 54.4499L9.3 49.4499L9.14 49.2699C9.13412 49.2616 9.12829 49.2533 9.1225 49.2449L9.2975 49.4499C9.01235 49.1625 8.82746 48.7908 8.77026 48.39C8.71307 47.9892 8.78662 47.5806 8.98 47.2249C9.06662 47.0692 9.1743 46.9262 9.3 46.7999L14.3 41.7999C14.635 41.4675 15.083 41.2737 15.5547 41.2571C16.0263 41.2405 16.4868 41.4023 16.8444 41.7103C17.2019 42.0183 17.4302 42.4499 17.4836 42.9187C17.537 43.3876 17.4116 43.8594 17.1325 44.2399L16.95 44.4499L15.15 46.2499H46.875C47.9734 46.2499 49.0315 45.8366 49.8393 45.0923C50.647 44.348 51.1452 43.3271 51.235 42.2324L51.25 41.8749V20.6249C51.25 20.1277 51.4475 19.6507 51.7992 19.2991C52.1508 18.9475 52.6277 18.7499 53.125 18.7499ZM45.49 5.36744L45.7 5.54994L50.7 10.5499C50.7639 10.6131 50.8233 10.6808 50.8775 10.7524L50.7025 10.5499C51.0507 10.9004 51.247 11.3739 51.2489 11.8679C51.2507 12.3619 51.058 12.8368 50.7125 13.1899L50.7 13.1999L45.7 18.1999C45.365 18.5323 44.917 18.7262 44.4453 18.7428C43.9737 18.7594 43.5132 18.5975 43.1556 18.2895C42.7981 17.9815 42.5698 17.55 42.5164 17.0811C42.463 16.6122 42.5884 16.1405 42.8675 15.7599L43.05 15.5499L44.845 13.7499H13.125C12.027 13.75 10.9692 14.1629 10.1615 14.9066C9.35384 15.6504 8.85535 16.6707 8.765 17.7649L8.75 18.1249V39.3749C8.74985 39.85 8.56939 40.3073 8.24507 40.6544C7.92075 41.0015 7.47675 41.2126 7.0028 41.245C6.52885 41.2774 6.06027 41.1287 5.69175 40.8289C5.32324 40.5291 5.08225 40.1006 5.0175 39.6299L5 39.3749V18.1249C4.99986 16.0496 5.79389 14.0529 7.21918 12.5444C8.64447 11.0359 10.593 10.1299 12.665 10.0124L13.125 9.99994H44.8475L43.0475 8.19994C42.7303 7.88216 42.5377 7.46111 42.5047 7.01335C42.4717 6.56558 42.6004 6.12083 42.8675 5.75994L43.05 5.54994C43.3675 5.2324 43.7884 5.03933 44.2361 5.00584C44.6839 4.97234 45.1288 5.10066 45.49 5.36744ZM30 19.9999C32.6522 19.9999 35.1957 21.0535 37.0711 22.9289C38.9464 24.8042 40 27.3478 40 29.9999C40 32.6521 38.9464 35.1956 37.0711 37.071C35.1957 38.9464 32.6522 39.9999 30 39.9999C27.3478 39.9999 24.8043 38.9464 22.9289 37.071C21.0536 35.1956 20 32.6521 20 29.9999C20 27.3478 21.0536 24.8042 22.9289 22.9289C24.8043 21.0535 27.3478 19.9999 30 19.9999Z" fill="black"/>
</svg>
