<svg width="120" height="120" viewBox="0 0 120 120" fill="none" xmlns="http://www.w3.org/2000/svg">
<path d="M13.905 51.4049C13.202 50.7017 12.8071 49.7481 12.8071 48.7537C12.8071 47.7593 13.202 46.8057 13.905 46.1024L48.75 11.25L49.275 10.8075C49.9975 10.3113 50.871 10.0838 51.7438 10.1647C52.6165 10.2455 53.4334 10.6295 54.0525 11.25L54.4875 11.775C54.9852 12.4978 55.2142 13.3721 55.1347 14.2461C55.0553 15.1201 54.6724 15.9387 54.0525 16.56L25.6125 44.9999H108.75C109.745 44.9999 110.698 45.395 111.402 46.0983C112.105 46.8016 112.5 47.7554 112.5 48.7499C112.5 49.7445 112.105 50.6983 111.402 51.4016C110.698 52.1049 109.745 52.4999 108.75 52.4999H16.5525C15.5599 52.4997 14.6078 52.106 13.905 51.4049ZM7.5 71.2499C7.5 70.2554 7.89509 69.3015 8.59835 68.5983C9.30161 67.895 10.2554 67.4999 11.25 67.4999H103.448C104.189 67.5001 104.913 67.7198 105.529 68.1314C106.146 68.543 106.626 69.128 106.91 69.8125C107.194 70.497 107.269 71.2504 107.125 71.9774C106.982 72.7044 106.626 73.3726 106.103 73.8974L71.25 108.75L70.725 109.192C69.9532 109.713 69.0157 109.929 68.094 109.797C67.1723 109.666 66.3322 109.198 65.7364 108.482C65.1405 107.767 64.8315 106.856 64.8691 105.926C64.9068 104.995 65.2884 104.112 65.94 103.447L94.41 74.9999H11.25C10.2554 74.9999 9.30161 74.6048 8.59835 73.9016C7.89509 73.1983 7.5 72.2445 7.5 71.2499Z" fill="#333333"/>
</svg>
