<svg width="120" height="120" viewBox="0 0 120 120" fill="none" xmlns="http://www.w3.org/2000/svg">
<path fill-rule="evenodd" clip-rule="evenodd" d="M55.1549 64.005L28.3249 13.54C28.1707 13.2501 28.0752 12.9327 28.0437 12.6059C28.0123 12.2791 28.0455 11.9492 28.1415 11.6353C28.3353 11.0012 28.7732 10.47 29.3586 10.1587C29.9441 9.84744 30.6292 9.78147 31.2633 9.97534C31.5773 10.0713 31.8693 10.2282 32.1227 10.4371C32.376 10.6459 32.5857 10.9026 32.7399 11.1925L59.5724 61.6575L63.3774 59.6325C64.5371 59.016 65.8069 58.6339 67.1143 58.5082C68.4216 58.3824 69.741 58.5155 70.9969 58.8997C72.2529 59.2839 73.4208 59.9118 74.4341 60.7474C75.4474 61.5831 76.2861 62.6101 76.9024 63.77L78.5224 66.815L95.6949 91.9525L60.0724 110.892L48.8349 82.5975L47.2174 79.5525C46.6007 78.3929 46.2186 77.1233 46.0926 75.816C45.9667 74.5087 46.0995 73.1895 46.4835 71.9335C46.8675 70.6776 47.4951 69.5096 48.3305 68.4962C49.1659 67.4829 50.1927 66.644 51.3524 66.0275L55.1574 64.005H55.1549ZM53.6974 70.4425L65.7224 64.05C66.3022 63.7417 66.937 63.5506 67.5906 63.4876C68.2443 63.4247 68.9039 63.4911 69.5319 63.6831C70.1598 63.875 70.7438 64.1889 71.2505 64.6066C71.7572 65.0243 72.1766 65.5377 72.4849 66.1175L74.1049 69.16L53.2474 80.25L51.6299 77.205C51.3216 76.6252 51.1305 75.9904 51.0675 75.3367C51.0045 74.6831 51.071 74.0235 51.2629 73.3955C51.4549 72.7675 51.7687 72.1835 52.1864 71.6769C52.6041 71.1702 53.1176 70.7507 53.6974 70.4425V70.4425ZM55.7724 86.5225L62.6549 103.855L67.2399 101.417L61.8274 90.88L66.2774 88.595L71.6574 99.07L88.4124 90.16L77.8924 74.76L55.7724 86.5225V86.5225Z" fill="#333333"/>
<path d="M40.9 88.0775C41.1523 87.8674 41.4435 87.7091 41.757 87.6115C42.0705 87.5139 42.4002 87.479 42.7272 87.5089C43.0541 87.5387 43.372 87.6326 43.6627 87.7853C43.9534 87.938 44.2111 88.1465 44.4212 88.3988C44.6314 88.6511 44.7897 88.9423 44.8873 89.2558C44.9849 89.5693 45.0197 89.899 44.9899 90.2259C44.9601 90.5529 44.8661 90.8708 44.7134 91.1615C44.5608 91.4522 44.3523 91.7099 44.1 91.92L44.0975 91.9225L44.0925 91.9275L44.085 91.9325L44.06 91.9525L43.985 92.015L43.7275 92.2125C43.51 92.375 43.2025 92.5975 42.81 92.8625C42.0225 93.3875 40.885 94.0725 39.45 94.7575C35.7196 96.5473 31.6375 97.4842 27.5 97.5C26.837 97.5 26.2011 97.2366 25.7322 96.7678C25.2634 96.299 25 95.6631 25 95C25 94.337 25.2634 93.7011 25.7322 93.2323C26.2011 92.7634 26.837 92.5 27.5 92.5C30.8937 92.4838 34.2412 91.7127 37.3 90.2425C38.2471 89.7939 39.1611 89.2784 40.035 88.7C40.3227 88.5099 40.6037 88.3098 40.8775 88.1L40.9025 88.075V88.0775H40.9ZM48.8875 104.58C49.4392 104.212 49.822 103.64 49.9519 102.99C50.0818 102.339 49.948 101.664 49.58 101.113C49.212 100.561 48.64 100.178 47.9897 100.048C47.3394 99.9183 46.6641 100.052 46.1125 100.42L46.1075 100.425L46.0575 100.455L45.8425 100.593C44.5409 101.387 43.1898 102.096 41.7975 102.718C39.1225 103.903 35.7475 105 32.5 105C31.837 105 31.2011 105.263 30.7322 105.732C30.2634 106.201 30 106.837 30 107.5C30 108.163 30.2634 108.799 30.7322 109.268C31.2011 109.737 31.837 110 32.5 110C36.755 110 40.875 108.598 43.8275 107.285C45.4313 106.571 46.987 105.753 48.485 104.838C48.5805 104.778 48.6755 104.718 48.77 104.658L48.85 104.605L48.875 104.59L48.8875 104.58V104.58Z" fill="#333333"/>
</svg>
