<svg width="78" height="60" viewBox="0 0 78 60" fill="none" xmlns="http://www.w3.org/2000/svg">
<path d="M56.6699 25H76.3299C76.5675 25.0001 76.8 25.0678 77.0004 25.1953C77.2008 25.3228 77.3608 25.5048 77.4615 25.7199C77.5622 25.935 77.5996 26.1743 77.5692 26.4099C77.5388 26.6455 77.442 26.8675 77.2899 27.05L67.4599 38.85C67.3426 38.9907 67.1958 39.1038 67.0299 39.1815C66.8641 39.2592 66.6831 39.2994 66.4999 39.2994C66.3168 39.2994 66.1358 39.2592 65.9699 39.1815C65.804 39.1038 65.6572 38.9907 65.5399 38.85L55.7099 27.05C55.5579 26.8675 55.4611 26.6455 55.4307 26.4099C55.4003 26.1743 55.4377 25.935 55.5384 25.7199C55.6391 25.5048 55.799 25.3228 55.9994 25.1953C56.1998 25.0678 56.4324 25.0001 56.6699 25ZM1.66994 35H21.3299C21.5675 34.9999 21.8 34.9322 22.0004 34.8047C22.2008 34.6772 22.3608 34.4952 22.4615 34.2801C22.5622 34.065 22.5996 33.8257 22.5692 33.5901C22.5388 33.3545 22.442 33.1325 22.2899 32.95L12.4599 21.15C12.3426 21.0093 12.1958 20.8961 12.0299 20.8185C11.864 20.7408 11.6831 20.7006 11.4999 20.7006C11.3168 20.7006 11.1358 20.7408 10.9699 20.8185C10.8041 20.8961 10.6573 21.0093 10.5399 21.15L0.709942 32.95C0.557931 33.1325 0.461062 33.3545 0.43068 33.5901C0.400297 33.8257 0.437658 34.065 0.538388 34.2801C0.639118 34.4952 0.799047 34.6772 0.999448 34.8047C1.19985 34.9322 1.43242 34.9999 1.66994 35Z" fill="black"/>
<path fill-rule="evenodd" clip-rule="evenodd" d="M39 4.99994C31.24 4.99994 24.3 8.53494 19.715 14.0899C19.5103 14.3553 19.2543 14.5768 18.9622 14.7412C18.6702 14.9057 18.3481 15.0097 18.015 15.0472C17.6819 15.0846 17.3447 15.0547 17.0234 14.9592C16.7022 14.8637 16.4034 14.7046 16.1448 14.4913C15.8863 14.2781 15.6733 14.015 15.5184 13.7177C15.3636 13.4205 15.2701 13.0951 15.2435 12.761C15.217 12.4269 15.2579 12.0908 15.3638 11.7728C15.4697 11.4549 15.6384 11.1614 15.86 10.9099C19.521 6.47758 24.378 3.19 29.8534 1.43822C35.3287 -0.313556 41.192 -0.455806 46.7459 1.02839C52.2998 2.51258 57.3105 5.56076 61.1821 9.81038C65.0537 14.06 67.6232 19.3322 68.585 24.9999H63.5C62.3456 19.354 59.2769 14.2799 54.8127 10.6357C50.3485 6.99143 44.7628 5.00065 39 4.99994ZM14.5 34.9999C15.4466 39.6231 17.6818 43.8841 20.9474 47.2906C24.2131 50.6972 28.3758 53.1104 32.9549 54.2514C37.5339 55.3923 42.3423 55.2145 46.8245 53.7385C51.3067 52.2625 55.2799 49.5484 58.285 45.9099C58.4898 45.6446 58.7458 45.4231 59.0378 45.2586C59.3299 45.0942 59.652 44.9902 59.9851 44.9527C60.3182 44.9153 60.6554 44.9452 60.9766 45.0407C61.2979 45.1362 61.5967 45.2953 61.8553 45.5085C62.1138 45.7218 62.3268 45.9849 62.4817 46.2822C62.6365 46.5794 62.73 46.9048 62.7565 47.2389C62.7831 47.573 62.7422 47.909 62.6363 48.227C62.5304 48.545 62.3616 48.8385 62.14 49.0899C58.4791 53.5223 53.6221 56.8099 48.1467 58.5617C42.6713 60.3134 36.808 60.4557 31.2542 58.9715C25.7003 57.4873 20.6896 54.4391 16.818 50.1895C12.9464 45.9399 10.3769 40.6677 9.41504 34.9999H14.5Z" fill="black"/>
</svg>
