<svg width="65" height="65" viewBox="0 0 65 65" fill="none" xmlns="http://www.w3.org/2000/svg">
<path fill-rule="evenodd" clip-rule="evenodd" d="M31.2812 8.94788C18.2971 8.94788 7.72913 19.5159 7.72913 32.5C7.72913 45.484 18.2971 56.052 31.2812 56.052C44.2653 56.052 54.8333 45.484 54.8333 32.5C54.8333 19.5159 44.2653 8.94788 31.2812 8.94788ZM4.72913 32.5C4.72913 17.859 16.6403 5.94788 31.2812 5.94788C45.9221 5.94788 57.8333 17.859 57.8333 32.5C57.8333 47.1409 45.9221 59.052 31.2812 59.052C16.6403 59.052 4.72913 47.1409 4.72913 32.5Z" fill="black"/>
<path fill-rule="evenodd" clip-rule="evenodd" d="M54.7278 9.63867C52.8884 10.3231 50.4361 11.6126 47.3994 13.5814C46.7043 14.0321 45.7754 13.834 45.3247 13.1389C44.8741 12.4437 45.0722 11.5149 45.7673 11.0642C48.892 9.03833 51.5518 7.61947 53.6817 6.82699C54.7454 6.43121 55.7308 6.17112 56.6094 6.08989C57.4707 6.01026 58.3808 6.08892 59.156 6.54249C59.9994 7.03597 60.4618 7.84145 60.6041 8.73807C60.7368 9.5747 60.5971 10.4887 60.3213 11.4037C59.7675 13.2408 58.5128 15.5675 56.6215 18.3185C49.0546 29.3249 32.7934 45.0334 20.316 53.1231C17.1913 55.149 14.5316 56.5679 12.4017 57.3604C11.3379 57.7561 10.3525 58.0162 9.47391 58.0975C8.61262 58.1771 7.70257 58.0984 6.92738 57.6448C6.08399 57.1514 5.62153 56.3459 5.47927 55.4493C5.34653 54.6126 5.48624 53.6987 5.76208 52.7836C6.31584 50.9466 7.57058 48.6198 9.46186 45.8689C9.93119 45.1862 10.8651 45.0133 11.5477 45.4826C12.2304 45.9519 12.4033 46.8858 11.934 47.5685C10.1013 50.2342 9.05396 52.2577 8.63442 53.6495C8.4236 54.3488 8.40886 54.769 8.44221 54.9792C8.44873 55.0202 8.45621 55.0478 8.46188 55.0647C8.52447 55.0907 8.73341 55.1531 9.19773 55.1102C9.7209 55.0618 10.4345 54.8913 11.3555 54.5487C13.195 53.8643 15.6472 52.5748 18.684 50.6059C30.8525 42.7164 46.8205 27.2791 54.1494 16.6189C55.982 13.9532 57.0294 11.9297 57.4489 10.5379C57.6597 9.8385 57.6745 9.41838 57.6411 9.20818C57.6346 9.16711 57.6271 9.13955 57.6215 9.1226C57.5589 9.0966 57.3499 9.03422 56.8856 9.07715C56.3624 9.12552 55.6488 9.296 54.7278 9.63867Z" fill="black"/>
<path fill-rule="evenodd" clip-rule="evenodd" d="M26.2589 6.46007C26.8302 6.2332 27.4822 6.37789 27.9039 6.82516L38.8237 18.4068C39.0172 18.4015 39.2119 18.4337 39.3966 18.5038L43.3237 19.9934C43.6843 20.1302 43.9784 20.4007 44.1449 20.7487L45.6345 23.8632C45.6931 23.9859 45.7348 24.1159 45.7584 24.2498L46.1647 26.5518C46.2799 27.2046 45.953 27.8556 45.3606 28.153C44.7682 28.4505 44.0509 28.3238 43.5961 27.8415L38.0538 21.9633L35.5896 23.1529C35.1811 23.3501 34.7053 23.3519 34.2954 23.1577L29.1495 20.7202C28.9244 20.6136 28.7294 20.4525 28.5821 20.2516L25.6029 16.1891C25.4142 15.9319 25.3125 15.6211 25.3125 15.3021V7.85418C25.3125 7.23945 25.6876 6.68694 26.2589 6.46007ZM35.8954 19.674L28.3125 11.6316V14.811L30.7768 18.1715L34.9314 20.1394L35.8954 19.674ZM16.3854 20.7292C15.318 20.7292 14.5 21.5472 14.5 22.6146C14.5 23.682 15.318 24.5 16.3854 24.5C17.4528 24.5 18.2708 23.682 18.2708 22.6146C18.2708 21.5472 17.4528 20.7292 16.3854 20.7292ZM11.5 22.6146C11.5 19.8903 13.6612 17.7292 16.3854 17.7292C19.1097 17.7292 21.2708 19.8903 21.2708 22.6146C21.2708 25.1758 19.3607 27.2392 16.8683 27.4771C16.925 27.5028 16.9803 27.532 17.0339 27.5649L21.2318 30.1378C21.4171 30.2513 21.5755 30.4038 21.696 30.5846L24.4043 34.6471C24.4841 34.7668 24.5462 34.8973 24.5889 35.0346L25.5643 38.1776L30.1894 39.4495C30.9723 39.6648 31.4417 40.464 31.2486 41.2526C31.0555 42.0412 30.27 42.5331 29.4762 42.3623L6.18455 37.3519C5.69359 37.2463 5.28806 36.902 5.10418 36.4347C4.9203 35.9673 4.98247 35.439 5.26982 35.0272L9.33232 29.2042C9.5496 28.8928 9.87691 28.6754 10.2482 28.5958L15.6274 27.4431C13.2709 27.0853 11.5 25.0807 11.5 22.6146ZM22.2897 37.7477L21.7879 36.1308L19.3828 32.5232L15.9777 30.4362L11.4546 31.4054L9.02108 34.8934L22.2897 37.7477ZM55.5501 22.1856C56.1551 22.5958 56.3764 23.3823 56.0739 24.0478L54.0426 28.5166C53.9566 28.7058 53.8322 28.8751 53.6773 29.0137L51.1044 31.3158C50.8293 31.5619 50.4732 31.6979 50.1042 31.6979H48.2083C47.6072 31.6979 47.0641 31.3391 46.8285 30.7861C46.5928 30.2331 46.71 29.5928 47.1263 29.1591L53.6263 22.3883C54.1325 21.861 54.9451 21.7753 55.5501 22.1856ZM40.4664 29.5894C40.3069 28.3965 39.2271 27.5514 38.0165 27.6321L38.0102 27.6325C36.7336 27.7123 35.8082 28.8339 35.8925 30.0982L35.8929 30.1044C35.9619 31.2076 36.8088 32.0485 37.8536 32.2022L40.4664 29.5894ZM37.8198 24.6386C40.6169 24.4536 43.2853 26.5071 43.4763 29.5627C43.4782 29.5938 43.4792 29.625 43.4792 29.6563V30.1979C43.4792 30.5958 43.3211 30.9773 43.0398 31.2586L39.519 34.7794C39.2621 35.0363 38.9207 35.1913 38.5581 35.2154C35.7609 35.4019 33.0917 33.3496 32.899 30.2948C32.7141 27.4986 34.766 24.8313 37.8198 24.6386ZM56.8131 38.6446C57.1111 39.1503 57.0869 39.7834 56.7509 40.2647L47.678 53.2647C47.3617 53.718 46.8217 53.9605 46.2728 53.896C45.7239 53.8315 45.2549 53.4703 45.0523 52.9561L43.6032 49.2775L42.0034 49.0109C41.2312 48.8821 40.6878 48.1812 40.7556 47.4013L41.0265 44.2867C41.066 43.8328 41.3096 43.4214 41.6888 43.1686L48.1888 38.8353C48.3912 38.7003 48.6235 38.6166 48.8654 38.5914L55.3654 37.9143C55.9493 37.8535 56.515 38.1389 56.8131 38.6446ZM49.5447 41.5369L43.9527 45.2648L43.8645 46.2797L44.9341 46.4579C45.4538 46.5445 45.89 46.8975 46.0831 47.3877L46.8185 49.2544L52.4132 41.2381L49.5447 41.5369ZM33.8966 42.826C34.7003 42.6251 35.5147 43.1138 35.7156 43.9175L36.5281 47.1675C36.6295 47.5729 36.5571 48.0023 36.3284 48.3521L34.0263 51.873C33.8696 52.1127 33.6475 52.3025 33.3864 52.42L27.9697 54.8575C27.8481 54.9122 27.7198 54.9504 27.5881 54.9712L19.8694 56.19C19.0511 56.3192 18.283 55.7606 18.1538 54.9423C18.0246 54.124 18.5832 53.3559 19.4015 53.2267L26.9218 52.0393L31.7554 49.8642L33.4587 47.2591L32.8052 44.6451C32.6043 43.8414 33.0929 43.027 33.8966 42.826Z" fill="black"/>
</svg>
