<svg width="60" height="60" viewBox="0 0 60 60" fill="none" xmlns="http://www.w3.org/2000/svg">
<path d="M30 2.5C33.4583 2.5 36.4067 3.71833 38.845 6.155C41.2817 8.59333 42.5 11.5417 42.5 15V20H45C46.375 20 47.5525 20.4892 48.5325 21.4675C49.5108 22.4475 50 23.625 50 25V50C50 51.375 49.5108 52.5525 48.5325 53.5325C47.5525 54.5108 46.375 55 45 55H15C13.625 55 12.4483 54.5108 11.47 53.5325C10.49 52.5525 10 51.375 10 50V25C10 23.625 10.49 22.4475 11.47 21.4675C12.4483 20.4892 13.625 20 15 20H17.5V15C17.5 11.5417 18.7192 8.59333 21.1575 6.155C23.5942 3.71833 26.5417 2.5 30 2.5ZM30 7.5C27.9167 7.5 26.1458 8.22917 24.6875 9.6875C23.2292 11.1458 22.5 12.9167 22.5 15V20H37.5V15C37.5 12.9167 36.7708 11.1458 35.3125 9.6875C33.8542 8.22917 32.0833 7.5 30 7.5ZM15 50H45V25H15V50ZM15 25V50V25ZM27.5 47.5H32.5V40H40V35H32.5V27.5H27.5V35H20V40H27.5V47.5Z" fill="black"/>
</svg>
