<svg width="80" height="80" viewBox="0 0 80 80" fill="none" xmlns="http://www.w3.org/2000/svg">
<path d="M70.8334 25C71.4375 25.0001 72.0212 25.2189 72.4765 25.6159C72.9318 26.013 73.2279 26.5615 73.3101 27.16L73.3334 27.5V55.8334C73.3336 58.6005 72.2749 61.2628 70.3745 63.2741C68.4741 65.2855 65.8761 66.4934 63.1134 66.65L62.5001 66.6667H20.2034L22.6034 69.0667C23.0263 69.4904 23.2831 70.0518 23.3272 70.6488C23.3712 71.2459 23.1996 71.8389 22.8434 72.32L22.6001 72.6C22.1768 73.0234 21.6156 73.2809 21.0186 73.3255C20.4215 73.3702 19.8283 73.1991 19.3467 72.8434L19.0667 72.6L12.4001 65.9334L12.1867 65.6934C12.1789 65.6823 12.1711 65.6712 12.1634 65.66L12.3967 65.9334C12.0165 65.5502 11.77 65.0546 11.6938 64.5202C11.6175 63.9857 11.7156 63.441 11.9734 62.9667C12.0889 62.7591 12.2325 62.5684 12.4001 62.4L19.0667 55.7334C19.5134 55.2902 20.1108 55.0317 20.7396 55.0096C21.3685 54.9874 21.9825 55.2032 22.4593 55.6139C22.936 56.0246 23.2403 56.5999 23.3115 57.2251C23.3827 57.8503 23.2156 58.4793 22.8434 58.9867L22.6001 59.2667L20.2001 61.6667H62.5001C63.9646 61.6666 65.3755 61.1156 66.4524 60.1232C67.5294 59.1308 68.1937 57.7696 68.3134 56.31L68.3334 55.8334V27.5C68.3334 26.837 68.5968 26.2011 69.0656 25.7323C69.5345 25.2634 70.1704 25 70.8334 25V25ZM60.6534 7.15671L60.9334 7.40004L67.6001 14.0667C67.6853 14.1509 67.7644 14.2412 67.8367 14.3367L67.6034 14.0667C68.0677 14.534 68.3294 15.1653 68.3319 15.824C68.3344 16.4827 68.0775 17.1159 67.6167 17.5867L67.6001 17.6L60.9334 24.2667C60.4867 24.7099 59.8894 24.9684 59.2605 24.9905C58.6317 25.0126 58.0176 24.7969 57.5409 24.3862C57.0642 23.9755 56.7598 23.4002 56.6886 22.775C56.6174 22.1498 56.7846 21.5207 57.1567 21.0134L57.4001 20.7334L59.7934 18.3334H17.5001C16.0361 18.3334 14.6257 18.8839 13.5488 19.8756C12.4719 20.8673 11.8072 22.2277 11.6867 23.6867L11.6667 24.1667V52.5C11.6666 53.1335 11.4259 53.7432 10.9935 54.206C10.5611 54.6688 9.96909 54.9503 9.33715 54.9935C8.70521 55.0366 8.08044 54.8383 7.58909 54.4386C7.09773 54.0389 6.77642 53.4675 6.69008 52.84L6.66675 52.5V24.1667C6.66657 21.3996 7.72526 18.7373 9.62565 16.7259C11.526 14.7146 14.1241 13.5067 16.8867 13.35L17.5001 13.3334H59.7967L57.3967 10.9334C56.9739 10.5097 56.717 9.94827 56.673 9.35125C56.629 8.75423 56.8006 8.16123 57.1567 7.68004L57.4001 7.40004C57.8234 6.97665 58.3846 6.71922 58.9816 6.67457C59.5786 6.62991 60.1718 6.801 60.6534 7.15671V7.15671ZM40.0001 26.6667C43.5363 26.6667 46.9277 28.0715 49.4282 30.572C51.9287 33.0724 53.3334 36.4638 53.3334 40C53.3334 43.5363 51.9287 46.9276 49.4282 49.4281C46.9277 51.9286 43.5363 53.3334 40.0001 53.3334C36.4639 53.3334 33.0725 51.9286 30.572 49.4281C28.0715 46.9276 26.6667 43.5363 26.6667 40C26.6667 36.4638 28.0715 33.0724 30.572 30.572C33.0725 28.0715 36.4639 26.6667 40.0001 26.6667V26.6667ZM40.0001 31.6667C37.7899 31.6667 35.6703 32.5447 34.1075 34.1075C32.5447 35.6703 31.6667 37.7899 31.6667 40C31.6667 42.2102 32.5447 44.3298 34.1075 45.8926C35.6703 47.4554 37.7899 48.3334 40.0001 48.3334C42.2102 48.3334 44.3298 47.4554 45.8926 45.8926C47.4554 44.3298 48.3334 42.2102 48.3334 40C48.3334 37.7899 47.4554 35.6703 45.8926 34.1075C44.3298 32.5447 42.2102 31.6667 40.0001 31.6667V31.6667Z" fill="black"/>
</svg>
