<svg width="65" height="65" viewBox="0 0 65 65" fill="none" xmlns="http://www.w3.org/2000/svg">
<path d="M33.1157 5.20505C23.4355 5.17966 14.9169 10.188 10.0483 17.7544C9.83247 18.0908 10.0737 18.5351 10.4736 18.5351H14.936C15.2407 18.5351 15.5263 18.4018 15.7167 18.167C16.1611 17.6274 16.6372 17.1069 17.1386 16.6118C19.208 14.5488 21.6137 12.9238 24.2924 11.7939C27.06 10.626 30.0053 10.0293 33.0458 10.0293C36.0864 10.0293 39.0317 10.6196 41.7993 11.7939C44.478 12.9238 46.8837 14.5488 48.9531 16.6118C51.0224 18.6748 52.6411 21.0805 53.7773 23.7529C54.9516 26.5205 55.5419 29.4594 55.5419 32.5C55.5419 35.5405 54.9453 38.4795 53.7773 41.247C52.6474 43.9194 51.0224 46.3252 48.9531 48.3882C46.8837 50.4511 44.478 52.0761 41.7993 53.206C39.0295 54.3759 36.0525 54.976 33.0458 54.9707C30.0053 54.9707 27.06 54.374 24.2924 53.206C21.619 52.0773 19.1896 50.4412 17.1386 48.3882C16.6372 47.8867 16.1674 47.3662 15.7167 46.833C15.5263 46.5981 15.2343 46.4648 14.936 46.4648H10.4736C10.0737 46.4648 9.82612 46.9092 10.0483 47.2456C14.9106 54.7929 23.3911 59.7949 33.0458 59.7949C48.039 59.7949 60.2138 47.728 60.3662 32.7793C60.5185 17.5893 48.3247 5.24314 33.1157 5.20505ZM25.0745 39.6093V34.7851H5.14282C4.86353 34.7851 4.63501 34.5566 4.63501 34.2773V30.7226C4.63501 30.4433 4.86353 30.2148 5.14282 30.2148H25.0745V25.3906C25.0745 24.9653 25.5696 24.7241 25.8997 24.9907L34.907 32.1001C34.9677 32.1476 35.0168 32.2083 35.0505 32.2776C35.0843 32.3468 35.1018 32.4229 35.1018 32.5C35.1018 32.577 35.0843 32.6531 35.0505 32.7224C35.0168 32.7917 34.9677 32.8524 34.907 32.8999L25.8997 40.0093C25.5696 40.2695 25.0745 40.0346 25.0745 39.6093Z" fill="black"/>
</svg>
