<svg width="120" height="120" viewBox="0 0 120 120" fill="none" xmlns="http://www.w3.org/2000/svg">
<path d="M35 30C36.3261 30 37.5979 29.4732 38.5355 28.5355C39.4732 27.5979 40 26.3261 40 25C40 23.6739 39.4732 22.4021 38.5355 21.4645C37.5979 20.5268 36.3261 20 35 20H25C23.6739 20 22.4021 20.5268 21.4645 21.4645C20.5268 22.4021 20 23.6739 20 25V95C20 96.3261 20.5268 97.5979 21.4645 98.5355C22.4021 99.4732 23.6739 100 25 100H35C36.3261 100 37.5979 99.4732 38.5355 98.5355C39.4732 97.5979 40 96.3261 40 95C40 93.6739 39.4732 92.4021 38.5355 91.4645C37.5979 90.5268 36.3261 90 35 90H30V30H35ZM104.1 57.1L90 37.1C89.2353 36.0221 88.075 35.2907 86.7726 35.0658C85.4703 34.841 84.1319 35.1409 83.05 35.9C82.5092 36.2789 82.0489 36.7612 81.6955 37.319C81.3422 37.8768 81.1028 38.4991 80.9912 39.1499C80.8797 39.8007 80.8981 40.4672 81.0455 41.1109C81.1929 41.7545 81.4663 42.3626 81.85 42.9L90.45 55H50C48.6739 55 47.4021 55.5268 46.4645 56.4645C45.5268 57.4021 45 58.6739 45 60C45 61.3261 45.5268 62.5979 46.4645 63.5355C47.4021 64.4732 48.6739 65 50 65H90L81 77C80.606 77.5253 80.3194 78.123 80.1564 78.7591C79.9935 79.3952 79.9574 80.0571 80.0502 80.7071C80.1431 81.3571 80.3631 81.9825 80.6976 82.5475C81.0322 83.1125 81.4747 83.606 82 84C82.8655 84.6491 83.9181 85 85 85C85.7762 85 86.5418 84.8193 87.2361 84.4721C87.9303 84.125 88.5343 83.621 89 83L104 63C104.64 62.1543 104.995 61.1269 105.013 60.0663C105.031 59.0057 104.711 57.9669 104.1 57.1V57.1Z" fill="#333333"/>
</svg>
